<svg width="12" height="14" viewBox="0 0 12 14" fill="none" xmlns="http://www.w3.org/2000/svg">
<path d="M6 7.00016C6.36667 7.00016 6.68056 6.86961 6.94167 6.6085C7.20278 6.34739 7.33333 6.0335 7.33333 5.66683C7.33333 5.30016 7.20278 4.98627 6.94167 4.72516C6.68056 4.46405 6.36667 4.3335 6 4.3335C5.63333 4.3335 5.31944 4.46405 5.05833 4.72516C4.79722 4.98627 4.66667 5.30016 4.66667 5.66683C4.66667 6.0335 4.79722 6.34739 5.05833 6.6085C5.31944 6.86961 5.63333 7.00016 6 7.00016ZM6 11.9002C7.35556 10.6557 8.36111 9.52516 9.01667 8.5085C9.67222 7.49183 10 6.58905 10 5.80016C10 4.58905 9.61389 3.59739 8.84167 2.82516C8.06944 2.05294 7.12222 1.66683 6 1.66683C4.87778 1.66683 3.93056 2.05294 3.15833 2.82516C2.38611 3.59739 2 4.58905 2 5.80016C2 6.58905 2.32778 7.49183 2.98333 8.5085C3.63889 9.52516 4.64444 10.6557 6 11.9002ZM6 13.6668C4.21111 12.1446 2.875 10.7307 1.99167 9.42516C1.10833 8.11961 0.666667 6.91127 0.666667 5.80016C0.666667 4.1335 1.20278 2.80572 2.275 1.81683C3.34722 0.827941 4.58889 0.333496 6 0.333496C7.41111 0.333496 8.65278 0.827941 9.725 1.81683C10.7972 2.80572 11.3333 4.1335 11.3333 5.80016C11.3333 6.91127 10.8917 8.11961 10.0083 9.42516C9.125 10.7307 7.78889 12.1446 6 13.6668Z" fill="#575757"/>
</svg>
