<svg width="21" height="20" viewBox="0 0 21 20" fill="none" xmlns="http://www.w3.org/2000/svg">
<path fill-rule="evenodd" clip-rule="evenodd" d="M0.5 10C0.5 6.0054 0.5 4.0081 1.45188 2.5695C1.87694 1.9271 2.4271 1.37694 3.0695 0.95188C4.5081 0 6.5054 0 10.5 0C14.4946 0 16.4919 0 17.9305 0.95188C18.5729 1.37694 19.1231 1.9271 19.5481 2.5695C20.5 4.0081 20.5 6.0054 20.5 10C20.5 13.9946 20.5 15.9919 19.5481 17.4305C19.1231 18.0729 18.5729 18.6231 17.9305 19.0481C16.4919 20 14.4946 20 10.5 20C6.5054 20 4.5081 20 3.0695 19.0481C2.4271 18.6231 1.87694 18.0729 1.45188 17.4305C0.5 15.9919 0.5 13.9946 0.5 10ZM15.6769 10.0003C15.6769 12.8595 13.3591 15.1774 10.4998 15.1774C7.64058 15.1774 5.3227 12.8595 5.3227 10.0003C5.3227 7.14101 7.64058 4.82313 10.4998 4.82313C13.3591 4.82313 15.6769 7.14101 15.6769 10.0003ZM10.4998 13.4258C12.3917 13.4258 13.9254 11.8921 13.9254 10.0003C13.9254 8.10837 12.3917 6.57469 10.4998 6.57469C8.60794 6.57469 7.07426 8.10837 7.07426 10.0003C7.07426 11.8921 8.60794 13.4258 10.4998 13.4258ZM15.8814 5.7795C16.5533 5.7795 17.0979 5.23487 17.0979 4.56303C17.0979 3.89119 16.5533 3.34656 15.8814 3.34656C15.2096 3.34656 14.6649 3.89119 14.6649 4.56303C14.6649 5.23487 15.2096 5.7795 15.8814 5.7795Z" fill="#939393"/>
</svg>
