<svg width="21" height="20" viewBox="0 0 21 20" fill="none" xmlns="http://www.w3.org/2000/svg">
<path d="M0.500015 2.6888C0.500015 2.04745 0.725247 1.51835 1.17569 1.1015C1.62613 0.684623 2.21173 0.476196 2.93245 0.476196C3.6403 0.476196 4.21301 0.68141 4.65059 1.09188C5.10104 1.51516 5.32627 2.06669 5.32627 2.74652C5.32627 3.3622 5.10749 3.87525 4.6699 4.28572C4.21946 4.709 3.62743 4.92064 2.89384 4.92064H2.87453C2.16668 4.92064 1.59397 4.709 1.15639 4.28572C0.718799 3.86244 0.500015 3.33012 0.500015 2.6888ZM0.750981 19.5238V6.67148H5.0367V19.5238H0.750981ZM7.41121 19.5238H11.6969V12.3473C11.6969 11.8983 11.7484 11.552 11.8514 11.3083C12.0315 10.8722 12.305 10.5034 12.6718 10.202C13.0386 9.90059 13.4987 9.74988 14.0521 9.74988C15.4936 9.74988 16.2143 10.7183 16.2143 12.6551V19.5238H20.5V12.1549C20.5 10.2565 20.0496 8.81674 19.1487 7.8355C18.2478 6.85426 17.0573 6.36364 15.5772 6.36364C13.917 6.36364 12.6236 7.07552 11.6969 8.49928V8.53776H11.6776L11.6969 8.49928V6.67148H7.41121C7.43695 7.08193 7.44982 8.35817 7.44982 10.5002C7.44982 12.6423 7.43695 15.6501 7.41121 19.5238Z" fill="#939393"/>
</svg>
