<svg width="21" height="18" viewBox="0 0 21 18" fill="none" xmlns="http://www.w3.org/2000/svg">
<path d="M13.8634 0.890443V0.886841H14.8012L15.1438 0.955276C15.3722 0.999705 15.5796 1.05793 15.766 1.12997C15.9524 1.202 16.1327 1.28605 16.307 1.3821C16.4814 1.47814 16.6395 1.576 16.7813 1.67565C16.922 1.77411 17.0482 1.87856 17.1601 1.98901C17.2706 2.10067 17.4432 2.12949 17.6776 2.07546C17.9121 2.02143 18.1645 1.94638 18.4351 1.85034C18.7056 1.7543 18.9731 1.64624 19.2376 1.52617C19.5021 1.4061 19.6632 1.32987 19.7209 1.29745C19.7774 1.26385 19.8075 1.24584 19.8111 1.24343L19.8147 1.23802L19.8327 1.22902L19.8507 1.22001L19.8688 1.21101L19.8868 1.202L19.8904 1.1966L19.8958 1.193L19.9013 1.1894L19.9049 1.18399L19.9229 1.17859L19.9409 1.17499L19.9373 1.202L19.9319 1.22902L19.9229 1.25603L19.9139 1.28305L19.9049 1.30106L19.8958 1.31907L19.8868 1.34608C19.8808 1.36409 19.8748 1.38809 19.8688 1.41812C19.8628 1.44814 19.8057 1.56819 19.6975 1.7783C19.5893 1.98842 19.454 2.20152 19.2917 2.41763C19.1294 2.63375 18.9839 2.79702 18.8553 2.90749C18.7254 3.01915 18.6395 3.09718 18.5974 3.14161C18.5553 3.18723 18.5042 3.22924 18.4441 3.26768L18.3539 3.32711L18.3359 3.33611L18.3178 3.34512L18.3142 3.35052L18.3088 3.35412L18.3034 3.35772L18.2998 3.36313L18.2818 3.37213L18.2637 3.38113L18.2601 3.38654L18.2547 3.39014L18.2493 3.39374L18.2457 3.39914L18.2421 3.40455L18.2367 3.40815L18.2313 3.41175L18.2277 3.41715H18.3178L18.8228 3.3091C19.1594 3.23706 19.481 3.15002 19.7876 3.04796L20.2746 2.88588L20.3287 2.86787L20.3557 2.85886L20.3737 2.84986L20.3918 2.84085L20.4098 2.83185L20.4278 2.82285L20.4639 2.81744L20.5 2.81384V2.84986L20.491 2.85346L20.4819 2.85886L20.4784 2.86427L20.4729 2.86787L20.4675 2.87147L20.4639 2.87687L20.4603 2.88228L20.4549 2.88588L20.4495 2.88948L20.4459 2.89488L20.4423 2.90029L20.4369 2.90389L20.4278 2.9219L20.4188 2.93991L20.4134 2.94351C20.411 2.94711 20.3347 3.04915 20.1844 3.24967C20.0341 3.45137 19.953 3.55341 19.9409 3.55583C19.9289 3.55943 19.9121 3.57744 19.8904 3.60985C19.87 3.64346 19.7425 3.77734 19.5081 4.01146C19.2737 4.24558 19.044 4.45388 18.8192 4.63639C18.5932 4.82008 18.479 5.04579 18.4766 5.31354C18.473 5.58008 18.4591 5.88144 18.4351 6.21761C18.411 6.55379 18.3659 6.91696 18.2998 7.30717C18.2337 7.69738 18.1315 8.13861 17.9932 8.63086C17.855 9.12311 17.6866 9.60336 17.4883 10.0716C17.2899 10.5398 17.0825 10.9601 16.8661 11.3323C16.6497 11.7045 16.4513 12.0196 16.2709 12.2778C16.0906 12.5359 15.9073 12.779 15.7209 13.0071C15.5346 13.2353 15.2989 13.4922 15.014 13.7779C14.7278 14.0625 14.5715 14.2186 14.5451 14.2462C14.5174 14.2726 14.3996 14.371 14.1916 14.5415C13.9848 14.7132 13.7624 14.8849 13.5243 15.0566C13.2875 15.2271 13.0699 15.3694 12.8715 15.4834C12.6731 15.5975 12.4339 15.7277 12.1537 15.8742C11.8748 16.0219 11.573 16.1588 11.2484 16.2848C10.9238 16.4109 10.5811 16.528 10.2205 16.636C9.85977 16.7441 9.51111 16.8281 9.17447 16.8881C8.83784 16.9482 8.45611 16.9992 8.02929 17.0412L7.38907 17.1043V17.1133H6.21685V17.1043L6.06356 17.0952C5.96137 17.0893 5.87721 17.0832 5.81108 17.0772C5.74496 17.0712 5.49548 17.0382 5.06265 16.9782C4.62983 16.9182 4.29019 16.8581 4.04372 16.7981C3.79726 16.7381 3.43055 16.624 2.94363 16.4559C2.4567 16.2878 2.04011 16.1179 1.69385 15.9463C1.3488 15.7758 1.13239 15.6677 1.04462 15.6221C0.958055 15.5777 0.86067 15.5224 0.752464 15.4564L0.590156 15.3573L0.586567 15.3519L0.581139 15.3483L0.575729 15.3447L0.572122 15.3393L0.554088 15.3303L0.536053 15.3213L0.532464 15.3159L0.527036 15.3123L0.521626 15.3087L0.518019 15.3033L0.51443 15.2979L0.509002 15.2943H0.499985V15.2583L0.518019 15.2619L0.536053 15.2673L0.617207 15.2763C0.67131 15.2823 0.818596 15.2913 1.05905 15.3033C1.29952 15.3153 1.55499 15.3153 1.8255 15.3033C2.09602 15.2913 2.37255 15.2643 2.65508 15.2223C2.93762 15.1803 3.27126 15.1082 3.65598 15.0062C4.04072 14.9041 4.3942 14.7828 4.71641 14.6424C5.03742 14.5007 5.26585 14.3951 5.40172 14.3254C5.53636 14.257 5.74195 14.1297 6.01847 13.9436L6.43326 13.6645L6.43686 13.6591L6.44228 13.6555L6.4477 13.6519L6.45129 13.6465L6.4549 13.6411L6.46031 13.6375L6.46574 13.6339L6.46933 13.6285L6.48736 13.623L6.50539 13.6194L6.509 13.6014L6.51441 13.5834L6.51984 13.5798L6.52343 13.5744L6.37916 13.5654C6.28298 13.5594 6.1898 13.5534 6.09962 13.5474C6.00945 13.5414 5.86819 13.5144 5.67582 13.4664C5.48347 13.4183 5.27607 13.3463 5.05364 13.2503C4.83122 13.1542 4.61481 13.0401 4.4044 12.9081C4.19402 12.776 4.04191 12.6661 3.94814 12.5785C3.85557 12.492 3.73533 12.3696 3.58745 12.2111C3.44078 12.0514 3.31333 11.8875 3.20512 11.7195C3.09692 11.5514 2.99353 11.3575 2.89495 11.1378L2.74525 10.81L2.73623 10.783L2.72722 10.756L2.72181 10.738L2.7182 10.7199L2.74525 10.7235L2.7723 10.7289L2.97068 10.756C3.10294 10.774 3.31034 10.78 3.59286 10.774C3.8754 10.768 4.07077 10.756 4.17897 10.738C4.28718 10.7199 4.35331 10.7079 4.37735 10.7019L4.41342 10.6929L4.45851 10.6839L4.50359 10.6749L4.5072 10.6695L4.51261 10.6659L4.51804 10.6623L4.52163 10.6569L4.48556 10.6479L4.44949 10.6389L4.41342 10.6299L4.37735 10.6209L4.34128 10.6119C4.31724 10.6059 4.27517 10.5939 4.21504 10.5759C4.15494 10.5579 3.99263 10.4918 3.72812 10.3778C3.46363 10.2637 3.25322 10.1526 3.09692 10.0446C2.94023 9.93622 2.79082 9.81771 2.64967 9.68981C2.509 9.56014 2.35452 9.39325 2.18619 9.18915C2.01787 8.98505 1.8676 8.74792 1.73533 8.47778C1.60309 8.20764 1.5039 7.94951 1.43777 7.70338C1.3719 7.45869 1.32845 7.20853 1.30794 6.95599L1.27546 6.57779L1.29349 6.5814L1.31153 6.5868L1.32956 6.5958L1.3476 6.60481L1.36563 6.61381L1.38366 6.62282L1.66319 6.74888C1.84956 6.83293 2.08099 6.90497 2.35751 6.96499C2.63405 7.02502 2.79935 7.05805 2.85346 7.06405L2.93461 7.07305H3.09692L3.09333 7.06765L3.0879 7.06405L3.08249 7.06044L3.07888 7.05504L3.0753 7.04964L3.06987 7.04604L3.06446 7.04243L3.06085 7.03703L3.04282 7.02803L3.02478 7.01902L3.02119 7.01362L3.01576 7.01002L3.01035 7.00641L3.00675 7.00101L2.98871 6.99201L2.97068 6.983L2.96709 6.9776C2.96348 6.97519 2.91178 6.93677 2.81198 6.86234C2.71338 6.7867 2.60999 6.68886 2.50179 6.56879C2.39358 6.44872 2.28538 6.32265 2.17717 6.19059C2.06877 6.05823 1.97221 5.91661 1.88862 5.76737C1.80448 5.6173 1.71549 5.42638 1.62172 5.19468C1.52915 4.96416 1.45881 4.73184 1.41072 4.49771C1.36264 4.26359 1.33558 4.03248 1.32956 3.80435C1.32356 3.57623 1.32956 3.38113 1.3476 3.21905C1.36563 3.05697 1.4017 2.87387 1.4558 2.66977C1.5099 2.46567 1.58806 2.24955 1.69025 2.02143L1.84354 1.67925L1.85255 1.65224L1.86157 1.62522L1.867 1.62162L1.87059 1.61622L1.8742 1.61082L1.87961 1.60721L1.88503 1.61082L1.88862 1.61622L1.89223 1.62162L1.89764 1.62522L1.90307 1.62883L1.90666 1.63423L1.91026 1.63963L1.91567 1.64323L1.92469 1.66124L1.93371 1.67925L1.93914 1.68285L1.94273 1.68826L2.18619 1.9584C2.3485 2.13849 2.54087 2.3396 2.76328 2.56171C2.98572 2.78382 3.10895 2.89908 3.13299 2.90749C3.15705 2.91709 3.18709 2.9447 3.22316 2.99033C3.25923 3.03476 3.37946 3.14102 3.58384 3.3091C3.78824 3.47718 4.05575 3.67229 4.38637 3.8944C4.71701 4.11651 5.0837 4.33563 5.48646 4.55174C5.88924 4.76785 6.32206 4.96295 6.78493 5.13705C7.24781 5.31114 7.57243 5.4252 7.75878 5.47922C7.94514 5.53325 8.26374 5.60228 8.71459 5.68633C9.16545 5.77038 9.50511 5.82441 9.73353 5.84841C9.96197 5.87242 10.1183 5.88623 10.2024 5.88984L10.3287 5.89344L10.3251 5.86642L10.3196 5.83941L10.2836 5.61429C10.2595 5.46422 10.2475 5.25411 10.2475 4.98397C10.2475 4.71383 10.2686 4.4647 10.3106 4.23658C10.3527 4.00845 10.4158 3.77734 10.5 3.54322C10.5842 3.3091 10.6665 3.12119 10.7471 2.97953C10.8288 2.83905 10.9358 2.67877 11.0681 2.49868C11.2003 2.31858 11.3717 2.13249 11.582 1.94039C11.7924 1.74828 12.0329 1.57719 12.3034 1.42712C12.5739 1.27705 12.8234 1.16298 13.0518 1.08494C13.2803 1.00691 13.4726 0.955871 13.6289 0.931864C13.7852 0.907858 13.8634 0.894045 13.8634 0.890443Z" fill="#939393"/>
</svg>
